<?xml version="1.0" encoding="UTF-8"?>
<svg version="1.1" xmlns="http://www.w3.org/2000/svg" width="1024" height="1024">
<path d="M0 0 C10.96107073 -0.27834902 21.92129805 -0.49140645 32.8851862 -0.62174606 C37.9767312 -0.68431396 43.0658548 -0.76912176 48.15600586 -0.90527344 C53.07104066 -1.03591444 57.98375155 -1.10745634 62.90038872 -1.13852692 C64.7733769 -1.16065826 66.64624111 -1.20388344 68.51823616 -1.26876068 C80.45995514 -1.66606378 80.45995514 -1.66606378 85 0 C88.64010987 3.57902575 90.2199769 7.28326391 92 12 C92.90425712 13.4491855 93.84569217 14.87721682 94.8515625 16.2578125 C95.30337891 16.89332031 95.75519531 17.52882813 96.22070312 18.18359375 C96.68412109 18.82425781 97.14753906 19.46492188 97.625 20.125 C98.38586914 21.19041016 98.38586914 21.19041016 99.16210938 22.27734375 C100.76851882 24.52277776 102.38299369 26.76218743 104 29 C104.53463867 29.74088867 105.06927734 30.48177734 105.62011719 31.24511719 C107.79292349 34.2551276 109.96684542 37.26431156 112.14526367 40.27026367 C115.78488265 45.29702343 119.3736712 50.35680805 122.9375 55.4375 C127.18099268 61.48558342 131.53018622 67.44541326 135.9375 73.375 C141.27683799 80.56056176 146.3741641 87.87999172 151.38647461 95.29638672 C154.45881272 99.81875576 157.62460673 104.19909567 161 108.5 C165.57779822 114.33300096 169.73298048 120.39896797 173.88256836 126.54174805 C178.52721613 133.38544976 183.3843714 140.05422885 188.33105469 146.68212891 C190.73137124 149.90146766 193.10119604 153.10437975 195.27734375 156.48046875 C196.75535592 159.08015066 196.75535592 159.08015066 199 160 C198.99861731 158.77221754 198.99861731 158.77221754 198.99720669 157.51963139 C198.97515317 137.63266847 198.95858929 117.74570764 198.94818783 97.85873508 C198.94302448 88.24167505 198.93598105 78.62462316 198.92456055 69.00756836 C198.91461488 60.62848831 198.90814685 52.24941416 198.90591151 43.87032837 C198.9046042 39.43083875 198.90151708 34.99136601 198.89426994 30.55188179 C198.88751158 26.37822727 198.88538266 22.20459667 198.88689232 18.03093719 C198.88661591 16.4945888 198.88460969 14.95823966 198.88079453 13.42189598 C198.87586013 11.33340383 198.87700075 9.24500343 198.87974548 7.1565094 C198.87836279 5.39911108 198.87836279 5.39911108 198.87695217 3.60620975 C199 1 199 1 200 0 C202.67250067 -0.10045053 205.31918581 -0.13616649 207.9921875 -0.12939453 C209.2482077 -0.13202301 209.2482077 -0.13202301 210.52960205 -0.13470459 C213.31142214 -0.13912401 216.09317921 -0.1361848 218.875 -0.1328125 C220.79931653 -0.13348551 222.72363298 -0.13445552 224.64794922 -0.13571167 C228.68653165 -0.13718877 232.725092 -0.13503371 236.76367188 -0.13037109 C241.95268511 -0.1246738 247.14164663 -0.12795274 252.33065796 -0.13394356 C256.3059122 -0.13754886 260.28115409 -0.13641073 264.25640869 -0.13381577 C266.1702678 -0.13314641 268.08412802 -0.13397522 269.99798584 -0.13629532 C272.6679585 -0.13882133 275.3378462 -0.13498198 278.0078125 -0.12939453 C278.80680969 -0.13141876 279.60580688 -0.13344299 280.42901611 -0.13552856 C285.8857375 -0.1142625 285.8857375 -0.1142625 287 1 C287.09777498 2.97557715 287.1237127 4.95471461 287.12304783 6.93270969 C287.12503888 8.2305239 287.12702993 9.5283381 287.12908131 10.86548001 C287.12622771 12.32459122 287.1232821 13.78370225 287.12025452 15.24281311 C287.12069008 16.77810208 287.12156472 18.31339098 287.12284368 19.84867948 C287.1250915 24.08781499 287.12106347 28.32692548 287.11606562 32.5660578 C287.11176539 37.12981838 287.11320724 41.69357744 287.1139679 46.25733948 C287.1144934 54.17110087 287.11134381 62.08485404 287.10573006 69.99861336 C287.09761867 81.44071926 287.09500021 92.88282118 287.09374207 104.32492965 C287.09155098 122.8869508 287.08488935 141.44896756 287.07543945 160.01098633 C287.06626681 178.04711892 287.05918525 196.08325032 287.05493164 214.11938477 C287.05453756 215.78573421 287.05453756 215.78573421 287.05413551 217.48574729 C287.05283051 223.05855115 287.0515668 228.63135502 287.05032361 234.2041589 C287.03994922 280.46944231 287.02232936 326.73472093 287 373 C287.66 373 288.32 373 289 373 C289 373.66 289 374.32 289 375 C285.79637674 376.60181163 282.30755666 376.18019016 278.78662109 376.20532227 C277.9377684 376.21522186 277.08891571 376.22512146 276.21434021 376.23532104 C273.40073462 376.26697917 270.58711212 376.29171049 267.7734375 376.31640625 C265.82572992 376.33697206 263.87802684 376.35796843 261.93032837 376.37937927 C256.7978479 376.43463852 251.66532689 376.48403079 246.53277588 376.53222656 C241.29785545 376.58241348 236.06299406 376.63811419 230.828125 376.69335938 C220.55213374 376.80098806 210.27609127 376.90242256 200 377 C199.88462891 376.32308105 199.76925781 375.64616211 199.65039062 374.94873047 C199.48732422 374.05557129 199.32425781 373.16241211 199.15625 372.2421875 C198.99962891 371.35901855 198.84300781 370.47584961 198.68164062 369.56591797 C197.80525055 366.26689946 196.2721257 364.08621771 194.16015625 361.45703125 C193 360 193 360 191.9375 357.8125 C191.05356185 355.86512987 191.05356185 355.86512987 189.1953125 354.265625 C186.69296825 351.68313449 184.88152551 348.96029112 182.9375 345.9375 C180.47571365 341.98888592 180.47571365 341.98888592 177.44140625 338.50390625 C176 337 176 337 174.60546875 334.1953125 C172.84870289 330.69887826 170.751994 327.93106941 168.3125 324.875 C164.25424348 319.72031784 160.53918073 314.43058508 156.95703125 308.9296875 C154.3086774 304.96508592 151.45174698 301.16942069 148.56640625 297.375 C147 295 147 295 146.46484375 292.75 C146.31144531 292.1725 146.15804687 291.595 146 291 C145.01 290.67 144.02 290.34 143 290 C141.52286491 287.92073957 140.18805386 285.8663604 138.875 283.6875 C135.77977221 278.71157859 132.57847888 273.87715505 129.0625 269.1875 C128.33160156 268.21167969 127.60070312 267.23585938 126.84765625 266.23046875 C125.19402072 263.92888263 125.19402072 263.92888263 123 263 C121.97862543 261.34634594 120.98387706 259.67623498 120 258 C119.15400859 256.82739165 118.29936899 255.66098822 117.4375 254.5 C115.44728508 251.76716757 114.22725198 249.15579081 113 246 C112.01126654 244.98885899 111.00968454 243.99022074 110 243 C109.04053417 241.78790171 108.10408611 240.55734009 107.1875 239.3125 C106.66800781 238.60996094 106.14851563 237.90742187 105.61328125 237.18359375 C105.08089844 236.46300781 104.54851562 235.74242187 104 235 C102.95882836 233.62462512 101.91717458 232.24961507 100.875 230.875 C98.45891405 227.65984396 96.23097904 224.34646856 94 221 C92.68133728 219.321702 91.34919532 217.65385233 90 216 C88.99613389 214.66957503 87.99548217 213.33670977 87 212 C87.00092179 212.78445684 87.00184359 213.56891369 87.00279331 214.37714195 C87.02490653 233.49115821 87.04143981 252.6051719 87.05181217 271.71919823 C87.05696187 280.96270584 87.06397925 290.20620491 87.07543945 299.44970703 C87.08542685 307.5091514 87.09186307 315.56858957 87.09408849 323.62803996 C87.09538872 327.89287688 87.09843088 332.15769608 87.10573006 336.42252731 C87.11255433 340.44272506 87.114604 344.4628979 87.11310768 348.48310089 C87.11338114 349.95277924 87.11534805 351.42245849 87.11920547 352.89213181 C87.13700906 360.02977903 87.06344546 367.06122195 86.21475887 374.15409279 C85.96147874 376.02137367 85.96147874 376.02137367 86 378 C86 378.99 86 379.98 86 381 C85.01 381.33 84.02 381.66 83 382 C82.87625 381.360625 82.7525 380.72125 82.625 380.0625 C82.41875 379.381875 82.2125 378.70125 82 378 C78.95477221 376.4773861 75.77224414 376.82064829 72.42919922 376.79467773 C71.64862152 376.78477814 70.86804382 376.77487854 70.06381226 376.76467896 C67.47746845 376.73303022 64.89110625 376.70829324 62.3046875 376.68359375 C60.51392126 376.66302713 58.72315992 376.64203074 56.93240356 376.62062073 C52.21421257 376.56536987 47.49597755 376.5159739 42.77770996 376.46777344 C37.96504793 376.4175804 33.15245 376.36188288 28.33984375 376.30664062 C18.8932839 376.19902219 9.44666844 376.09758541 0 376 C-1.10412693 207.42727191 -1.10412693 207.42727191 -1.12283063 129.70716596 C-1.12408655 124.86483295 -1.12779513 120.02250647 -1.13256836 115.18017578 C-1.16544736 79.44093533 -0.78870961 43.73029186 0 8 C-0.66 7.67 -1.32 7.34 -2 7 C-1.34 7 -0.68 7 0 7 C0 4.69 0 2.38 0 0 Z " fill="#EDD673" transform="translate(367,296)"/>
<path d="M0 0 C2.35128097 0.13110411 4.70299376 0.24999338 7.05493164 0.36865234 C8.57255113 0.45254272 10.09013106 0.53715257 11.60766602 0.62255859 C12.29947464 0.65598358 12.99128326 0.68940857 13.70405579 0.72384644 C18.22709327 0.99661352 22.20677936 1.92182758 26.52563477 3.25537109 C28.48339903 3.7074987 30.44578521 4.140094 32.41235352 4.55224609 C69.94804659 12.55587541 106.22008393 25.4255211 137.52563477 48.25537109 C138.16758789 48.71766113 138.80954102 49.17995117 139.47094727 49.65625 C151.2640754 58.17951708 162.88022409 67.18803863 172.97485352 77.70849609 C174.63784289 79.36729658 176.39966147 80.82572606 178.21313477 82.31787109 C183.80487412 87.14020445 188.39653806 92.88494471 193.10327148 98.54785156 C194.34941752 100.04382571 195.61018402 101.5275961 196.87329102 103.00927734 C223.38711255 134.52752254 240.30274072 171.6274582 250.52563477 211.25537109 C250.70610352 211.95114258 250.88657227 212.64691406 251.07250977 213.36376953 C267.94447942 280.01532205 253.78628877 351.84658066 219.07617188 410.20898438 C209.56276762 425.75841148 198.09456712 440.08791815 185.52563477 453.25537109 C184.57997713 454.30624839 183.63866615 455.36105103 182.70141602 456.41943359 C182.2417041 456.93683105 181.78199219 457.45422852 181.30834961 457.98730469 C180.0444021 459.41366142 178.78297779 460.84225291 177.52172852 462.27099609 C175.52563477 464.25537109 175.52563477 464.25537109 173.52563477 464.25537109 C173.52563477 464.91537109 173.52563477 465.57537109 173.52563477 466.25537109 C172.19750977 467.63037109 172.19750977 467.63037109 170.27563477 469.25537109 C169.53700195 469.88056641 168.79836914 470.50576172 168.03735352 471.14990234 C167.20848633 471.84470703 166.37961914 472.53951172 165.52563477 473.25537109 C164.66583008 474.00173828 163.80602539 474.74810547 162.92016602 475.51708984 C106.07165977 524.21077588 30.73091045 547.48303491 -43.70874023 541.75146484 C-97.38402736 536.91376221 -151.05558997 518.2915951 -192.86987305 483.58349609 C-194.43070508 482.29151096 -196.01091585 481.02304979 -197.59155273 479.75537109 C-211.20275919 468.71195554 -223.74628036 456.11083127 -234.47436523 442.25537109 C-235.38492359 441.1535076 -236.29924387 440.05474612 -237.21655273 438.95849609 C-269.17366861 400.50367885 -289.19670413 351.89113014 -294.47436523 302.25537109 C-294.56790283 301.46839844 -294.66144043 300.68142578 -294.7578125 299.87060547 C-295.72413212 290.8916356 -295.67175973 281.90008517 -295.66186523 272.88037109 C-295.66195587 271.61430527 -295.66195587 271.61430527 -295.66204834 270.32266235 C-295.64978866 258.29948391 -295.30893916 246.44217095 -293.7565918 234.50488281 C-293.45394774 232.09263168 -293.205995 229.67858326 -292.96655273 227.25927734 C-292.8030964 225.67457929 -292.63906067 224.08994085 -292.47436523 222.50537109 C-292.40362793 221.78244873 -292.33289063 221.05952637 -292.26000977 220.31469727 C-292.06899547 218.61876617 -291.78116059 216.93422348 -291.47436523 215.25537109 C-290.81436523 214.92537109 -290.15436523 214.59537109 -289.47436523 214.25537109 C-289.23363941 212.40264199 -289.00184526 210.54839924 -288.81030273 208.68994141 C-285.72253899 186.31263032 -274.91342328 164.0605219 -264.47436523 144.25537109 C-263.98581055 143.29888672 -263.49725586 142.34240234 -262.99389648 141.35693359 C-246.74940558 110.3240406 -221.28879447 80.36905147 -193.47436523 59.25537109 C-192.49983398 58.47548828 -191.52530273 57.69560547 -190.52124023 56.89208984 C-157.47972708 30.56721215 -105.79449712 2.25906126 -62.47436523 3.25537109 C-62.14436523 2.59537109 -61.81436523 1.93537109 -61.47436523 1.25537109 C-58.50952148 0.87646484 -58.50952148 0.87646484 -54.53686523 0.69287109 C-53.07462545 0.61995841 -51.61238588 0.54704159 -50.15014648 0.47412109 C-49.38395996 0.43931641 -48.61777344 0.40451172 -47.82836914 0.36865234 C-45.49398643 0.25631532 -43.1623713 0.11956686 -40.82983398 -0.02587891 C-39.29467871 -0.11964481 -37.75952248 -0.21339519 -36.22436523 -0.30712891 C-35.52964111 -0.3510376 -34.83491699 -0.39494629 -34.11914062 -0.44018555 C-22.72217698 -1.09670795 -11.38416022 -0.64449944 0 0 Z M-146.47436523 46.25537109 C-147.11067871 46.58827148 -147.74699219 46.92117187 -148.40258789 47.26416016 C-164.23891808 55.56181516 -178.38340309 66.06095588 -191.75170898 77.89208984 C-194.47436523 80.25537109 -194.47436523 80.25537109 -197.47436523 82.25537109 C-197.47436523 82.91537109 -197.47436523 83.57537109 -197.47436523 84.25537109 C-198.03124023 84.48224609 -198.58811523 84.70912109 -199.16186523 84.94287109 C-202.1268997 86.62572849 -204.12790213 88.79158483 -206.47436523 91.25537109 C-207.61905273 92.33818359 -207.61905273 92.33818359 -208.78686523 93.44287109 C-210.70150474 95.08659382 -210.70150474 95.08659382 -210.47436523 97.25537109 C-211.95936523 97.75037109 -211.95936523 97.75037109 -213.47436523 98.25537109 C-215.41843005 100.29129365 -215.41843005 100.29129365 -217.41186523 102.88037109 C-218.20850586 103.88326172 -219.00514648 104.88615234 -219.82592773 105.91943359 C-220.25421875 106.46245117 -220.68250977 107.00546875 -221.1237793 107.56494141 C-222.49572997 109.28211177 -223.89825157 110.96950859 -225.31030273 112.65380859 C-256.11710355 149.69550147 -273.39380593 195.81060956 -279.47436523 243.25537109 C-279.57821533 244.02896973 -279.68206543 244.80256836 -279.7890625 245.59960938 C-280.75530251 253.74620435 -280.67454237 261.9390972 -280.66186523 270.13037109 C-280.66092865 270.91048553 -280.65999207 271.69059998 -280.6590271 272.49435425 C-280.51247841 328.83907845 -262.50115678 382.86312726 -227.47436523 427.25537109 C-226.80276367 428.12033203 -226.13116211 428.98529297 -225.43920898 429.87646484 C-220.76389785 435.75774409 -215.76698711 441.30871143 -210.66186523 446.81787109 C-209.69192627 447.87312988 -209.69192627 447.87312988 -208.70239258 448.94970703 C-208.08444824 449.60874023 -207.46650391 450.26777344 -206.82983398 450.94677734 C-206.279646 451.536604 -205.72945801 452.12643066 -205.16259766 452.73413086 C-203.52222978 454.35813121 -203.52222978 454.35813121 -201.32714844 455.2746582 C-199.47436523 456.25537109 -199.47436523 456.25537109 -198.47436523 459.25537109 C-196.43844268 461.19943591 -196.43844268 461.19943591 -193.84936523 463.19287109 C-192.3450293 464.38783203 -192.3450293 464.38783203 -190.81030273 465.60693359 C-189.99577637 466.24937012 -189.99577637 466.24937012 -189.16479492 466.90478516 C-187.44762456 468.27673583 -185.76022773 469.67925743 -184.07592773 471.09130859 C-160.9527371 490.32238236 -130.93011247 508.2874239 -101.47436523 515.25537109 C-100.01964135 515.67301872 -98.56662351 516.09663613 -97.11499023 516.52490234 C-64.81796653 525.85427516 -31.57615728 529.10483482 1.90063477 526.06787109 C2.63275177 526.00223969 3.36486877 525.93660828 4.11917114 525.86898804 C36.03244455 522.94888406 66.59808794 515.18517725 95.52563477 501.25537109 C96.85884766 500.61559326 96.85884766 500.61559326 98.21899414 499.96289062 C115.15115635 491.72319191 134.09801316 481.71690083 147.52563477 468.25537109 C147.85563477 467.26537109 148.18563477 466.27537109 148.52563477 465.25537109 C149.08379883 465.13677734 149.64196289 465.01818359 150.21704102 464.89599609 C153.72018623 463.92388811 155.89915922 461.46257857 158.46313477 459.00537109 C159.31149902 458.20498413 159.31149902 458.20498413 160.17700195 457.38842773 C161.96985381 455.68749794 163.74927436 453.97350608 165.52563477 452.25537109 C166.3814917 451.43238525 166.3814917 451.43238525 167.25463867 450.59277344 C174.55077529 443.54858973 181.35414564 436.32577995 187.52563477 428.25537109 C187.94522461 427.706875 188.36481445 427.15837891 188.79711914 426.59326172 C229.88995824 372.54268065 249.02850752 307.96642712 240.52563477 240.25537109 C234.17836312 193.69019946 215.99383727 149.30225856 185.52563477 113.25537109 C185.01145996 112.64113281 184.49728516 112.02689453 183.9675293 111.39404297 C173.35156622 98.74827929 173.35156622 98.74827929 161.52563477 87.25537109 C160.86563477 87.25537109 160.20563477 87.25537109 159.52563477 87.25537109 C159.19563477 86.26537109 158.86563477 85.27537109 158.52563477 84.25537109 C156.38644855 82.24500325 156.38644855 82.24500325 153.71313477 80.19287109 C152.2165332 79.00177734 152.2165332 79.00177734 150.68969727 77.78662109 C150.16666016 77.37154297 149.64362305 76.95646484 149.10473633 76.52880859 C146.55329695 74.47124709 144.07939586 72.32260353 141.58813477 70.19287109 C135.84175869 65.40175599 129.84204801 61.254134 123.52563477 57.25537109 C122.58977539 56.64435547 121.65391602 56.03333984 120.68969727 55.40380859 C83.00672762 31.36978858 38.46060688 16.01065366 -6.47436523 15.25537109 C-8.13145508 15.22467529 -8.13145508 15.22467529 -9.82202148 15.19335938 C-57.93507599 14.44081548 -103.7713611 23.28316522 -146.47436523 46.25537109 Z " fill="#ECD270" transform="translate(531.474365234375,206.74462890625)"/>
<path d="M0 0 C2.30414196 2.8710609 4.58411621 5.74000488 6.7421875 8.72265625 C7.24363281 9.41552734 7.74507813 10.10839844 8.26171875 10.82226562 C9.06029297 11.93118164 9.06029297 11.93118164 9.875 13.0625 C10.72384766 14.2390918 10.72384766 14.2390918 11.58984375 15.43945312 C16.37614629 22.09293962 21.07591266 28.80502817 25.76269531 35.52880859 C30.1927384 41.87411435 34.70163266 48.15818405 39.24609375 54.421875 C42.86978554 59.42098265 46.44897885 64.449049 50 69.5 C54.12386268 75.36491317 58.29325506 81.19425475 62.5 87 C68.23619007 94.91913144 73.89135406 102.89256844 79.51611328 110.89111328 C82.00648781 114.4304116 84.50356585 117.96497456 87 121.5 C90.02480464 125.78419368 93.04889161 130.06888781 96.0703125 134.35546875 C96.58207031 135.08121094 97.09382812 135.80695313 97.62109375 136.5546875 C98.56935609 137.89949591 99.51731486 139.24451847 100.46484375 140.58984375 C100.91214844 141.2240625 101.35945312 141.85828125 101.8203125 142.51171875 C102.29065918 143.21973633 102.76100586 143.92775391 103.24560547 144.65722656 C105.00087017 147.13711379 105.00087017 147.13711379 107.57080078 149.44433594 C116.46868407 158.51928907 116.05043935 169.22403874 115.95449829 181.20497131 C115.90128706 184.98998891 115.79800129 188.77270754 115.68664551 192.55639648 C115.58326851 196.44459998 115.53845038 200.33346679 115.48828125 204.22265625 C115.38189599 211.81690176 115.2118609 219.4078855 115 227 C112.58089914 224.61086212 110.37721221 222.32103473 108.44140625 219.5234375 C107.74917969 218.53150391 107.74917969 218.53150391 107.04296875 217.51953125 C106.55441406 216.81183594 106.06585937 216.10414063 105.5625 215.375 C104.49180028 213.84050708 103.42015406 212.30667423 102.34765625 210.7734375 C101.79609863 209.98420898 101.24454102 209.19498047 100.67626953 208.38183594 C97.98749316 204.56131419 95.24398398 200.78096666 92.5 197 C88.29267373 191.1946778 84.12404226 185.36477568 80 179.5 C74.28226802 171.37202697 68.47175675 163.31333638 62.64111328 155.26611328 C59.38154682 150.76517667 56.1302738 146.25824565 52.87744141 141.75244141 C50.15930477 137.98792435 47.43918595 134.22487292 44.71484375 130.46484375 C38.93228995 122.47941232 33.19546682 114.46537518 27.52368164 106.40087891 C23.35946324 100.48838727 19.13613687 94.61996242 14.890625 88.765625 C13.89336351 87.38982184 12.9057943 86.00694238 11.92791748 84.61729431 C10.5233028 82.71042328 9.04044532 80.86046547 7.51495361 79.04884338 C0.31434287 70.25737816 -1.39765207 63.06837986 -0.9765625 51.7578125 C-0.95785082 50.25329351 -0.94364485 48.74871249 -0.9336853 47.24411011 C-0.89597031 43.33310936 -0.79818468 39.42597787 -0.68664551 35.51647949 C-0.58330837 31.50761238 -0.53845851 27.49810365 -0.48828125 23.48828125 C-0.381865 15.65711281 -0.21180509 7.82910366 0 0 Z " fill="#181816" transform="translate(453,415)"/>
<path d="M0 0 C3.01274523 2.91995217 5.72224486 5.76882334 8.09375 9.23046875 C8.64232666 10.02404785 9.19090332 10.81762695 9.75610352 11.63525391 C10.33158936 12.47749512 10.9070752 13.31973633 11.5 14.1875 C12.74757847 15.99166003 13.99630059 17.7950297 15.24609375 19.59765625 C16.18751221 20.95721436 16.18751221 20.95721436 17.14794922 22.34423828 C19.90881791 26.30320607 22.72906006 30.21777627 25.5625 34.125 C26.09423828 34.85871826 26.62597656 35.59243652 27.17382812 36.34838867 C28.24584413 37.82663378 29.3182709 39.30458109 30.39111328 40.78222656 C33.64473857 45.2671935 36.88474965 49.76200837 40.12744141 54.25488281 C42.81889016 57.98299585 45.51333801 61.70885411 48.21484375 65.4296875 C55.69632291 75.74353008 63.0331096 86.15199312 70.32421875 96.60107422 C77.50498054 106.88052722 84.77064109 117.09530464 92.12939453 127.24804688 C96.4272108 133.18515646 100.66481798 139.16294345 104.8671875 145.16796875 C105.32222656 145.81636719 105.77726563 146.46476563 106.24609375 147.1328125 C106.66425858 147.74355621 107.0824234 148.35429993 107.51325989 148.98355103 C108.92829659 151.00092706 108.92829659 151.00092706 110.56083679 152.59262085 C116.44723697 158.9397365 115.76906527 166.09121705 115.5859375 174.21875 C115.57472912 175.68703467 115.5661967 177.15534198 115.56021118 178.62365723 C115.53744081 182.46455224 115.47862463 186.30405823 115.4119873 190.14440918 C115.35030646 194.0726442 115.32314158 198.00110649 115.29296875 201.9296875 C115.2288654 209.62042088 115.12663493 217.31001489 115 225 C112.01339656 222.05010744 109.28043052 219.23508187 106.90625 215.76953125 C106.35759277 214.97587158 105.80893555 214.18221191 105.24365234 213.36450195 C104.38054443 212.10126099 104.38054443 212.10126099 103.5 210.8125 C102.25376105 209.00961643 101.00633994 207.20754952 99.7578125 205.40625 C99.13036133 204.50003906 98.50291016 203.59382812 97.85644531 202.66015625 C95.07640682 198.6765556 92.23038674 194.74228063 89.375 190.8125 C82.66902421 181.56811544 76.08854503 172.23816141 69.52050781 162.89550781 C63.89421759 154.89556845 58.23721785 146.92087496 52.5 139 C45.75669759 129.69011208 39.13165286 120.29947981 32.52050781 110.89550781 C26.34259116 102.11121894 20.1267118 93.3581539 13.80297852 84.67797852 C12.80682288 83.30622056 11.82138899 81.92660802 10.84721375 80.53915405 C9.53411336 78.73418472 8.15725721 76.97485941 6.73980713 75.25062561 C0.13566687 66.76973255 -1.25922571 60.37764245 -0.87890625 49.51171875 C-0.86206766 48.07302382 -0.84928138 46.6342764 -0.84031677 45.19551086 C-0.80635959 41.4541031 -0.7183354 37.71596687 -0.61798096 33.97583008 C-0.52501061 30.14123781 -0.4846193 26.30610356 -0.43945312 22.47070312 C-0.3436534 14.97899578 -0.19057776 7.48996048 0 0 Z " fill="#181816" transform="translate(453,327)"/>
<path d="M0 0 C7.26 0 14.52 0 22 0 C22 113.19 22 226.38 22 343 C14.74 343 7.48 343 0 343 C0 229.81 0 116.62 0 0 Z " fill="#181917" transform="translate(617,312)"/>
<path d="M0 0 C7.26 0 14.52 0 22 0 C22 113.19 22 226.38 22 343 C14.74 343 7.48 343 0 343 C0 229.81 0 116.62 0 0 Z " fill="#191917" transform="translate(582,312)"/>
<path d="M0 0 C6.93 0 13.86 0 21 0 C21 113.19 21 226.38 21 343 C14.07 343 7.14 343 0 343 C0 229.81 0 116.62 0 0 Z " fill="#151615" transform="translate(418,312)"/>
<path d="M0 0 C6.93 0 13.86 0 21 0 C21 113.19 21 226.38 21 343 C14.07 343 7.14 343 0 343 C0 229.81 0 116.62 0 0 Z " fill="#131413" transform="translate(383,312)"/>
<path d="M0 0 C7.26 0 14.52 0 22 0 C22 113.19 22 226.38 22 343 C14.74 343 7.48 343 0 343 C0 229.81 0 116.62 0 0 Z M3 3 C3 114.54 3 226.08 3 341 C8.28 341 13.56 341 19 341 C19 229.46 19 117.92 19 3 C13.72 3 8.44 3 3 3 Z " fill="#2C281B" transform="translate(617,312)"/>
<path d="M0 0 C6.93 0 13.86 0 21 0 C21 0.66 21 1.32 21 2 C20.34 2 19.68 2 19 2 C19 114.2 19 226.4 19 342 C18.67 342 18.34 342 18 342 C18 230.13 18 118.26 18 3 C13.05 3 8.1 3 3 3 C3 114.54 3 226.08 3 341 C7.62 341 12.24 341 17 341 C17 341.33 17 341.66 17 342 C12.05 342 7.1 342 2 342 C1.99576806 340.26172565 1.99153612 338.52345131 1.98717594 336.73250198 C1.88656569 295.49720433 1.78086895 254.26192236 1.66888306 213.02665396 C1.65511299 207.95461837 1.64138596 202.88258266 1.62768555 197.81054688 C1.62359309 196.29587905 1.62359309 196.29587905 1.61941796 194.75061187 C1.57530688 178.38654201 1.53468567 162.02246524 1.49534739 145.65838328 C1.45492469 128.8754092 1.41076741 112.09244797 1.36312145 95.30949283 C1.33382445 84.94813608 1.30746301 74.58678032 1.28482103 64.22540686 C1.26902955 57.12646554 1.2496204 50.02753995 1.22733159 42.92861608 C1.2145677 38.8289819 1.20343221 34.72935983 1.19658089 30.62971115 C1.19027809 26.87928987 1.17945077 23.12891035 1.1649667 19.378512 C1.158416 17.37329543 1.1567591 15.36806473 1.15525442 13.36283803 C1.14977998 12.17748613 1.14430554 10.99213423 1.1386652 9.77086258 C1.13600716 8.74561769 1.13334911 7.7203728 1.13061053 6.66405988 C1.0741675 3.74491044 1.0741675 3.74491044 0 0 Z " fill="#24251F" transform="translate(383,312)"/>
<path d="M0 0 C0.33 0 0.66 0 1 0 C1 16.83 1 33.66 1 51 C28.06 51 55.12 51 83 51 C83 34.83 83 18.66 83 2 C83.66 1.67 84.32 1.34 85 1 C85.95124889 5.79686383 86.14601622 10.45562524 86.1328125 15.328125 C86.13376923 16.11717224 86.13472595 16.90621948 86.13571167 17.71917725 C86.13638955 19.38326091 86.13456273 21.04734726 86.13037109 22.71142578 C86.12504601 25.22825227 86.13031463 27.74489797 86.13671875 30.26171875 C86.1396897 38.24723777 85.988217 46.06289202 85 54 C85 54.66 85 55.32 85 56 C85 56.99 85 57.98 85 59 C83.515 59.495 83.515 59.495 82 60 C81.87625 59.360625 81.7525 58.72125 81.625 58.0625 C81.315625 57.0415625 81.315625 57.0415625 81 56 C77.95477221 54.4773861 74.77224414 54.82064829 71.42919922 54.79467773 C70.64862152 54.78477814 69.86804382 54.77487854 69.06381226 54.76467896 C66.47746845 54.73303022 63.89110625 54.70829324 61.3046875 54.68359375 C59.51392126 54.66302713 57.72315992 54.64203074 55.93240356 54.62062073 C51.21421257 54.56536987 46.49597755 54.5159739 41.77770996 54.46777344 C36.11920851 54.40875883 30.46078769 54.3425143 24.80235291 54.27747345 C16.20161776 54.17942601 7.60083141 54.09059594 -1 54 C-0.67 36.18 -0.34 18.36 0 0 Z " fill="#EED975" transform="translate(368,618)"/>
<path d="M0 0 C0.33 0 0.66 0 1 0 C1.04575379 43.22887621 1.08100718 86.45774963 1.10213066 129.68664525 C1.10463214 134.78743476 1.10722078 139.88822423 1.10986328 144.98901367 C1.1103879 146.00451114 1.11091252 147.02000861 1.11145304 148.06627873 C1.12016134 164.52021814 1.13593365 180.97414361 1.15430559 197.42807474 C1.17299282 214.30483321 1.18411423 231.18158437 1.18817699 248.05835277 C1.19092449 258.47654154 1.19960976 268.89469091 1.21583293 279.31286756 C1.22638529 286.45199015 1.2296046 293.5910923 1.22700275 300.73022213 C1.22571873 304.85228599 1.2277202 308.97428088 1.23841095 313.09633255 C1.24812281 316.86840963 1.24864838 320.64037118 1.24179779 324.41245351 C1.24054879 326.42688748 1.2491931 328.44132004 1.25816262 330.45573443 C1.25418052 331.65004417 1.25019842 332.84435391 1.24609566 334.07485485 C1.2468551 335.10579555 1.24761454 336.13673624 1.24839699 337.19891757 C1 340 1 340 -1 345 C-8.26 345 -15.52 345 -23 345 C-23 344.01 -23 343.02 -23 342 C-16.07 341.67 -9.14 341.34 -2 341 C-0.7748878 307.78673733 -0.78618379 274.56276798 -0.70291888 241.33192564 C-0.68172338 232.94479679 -0.65534792 224.55768628 -0.62875474 216.17057309 C-0.58148938 201.22236713 -0.53811867 186.27415264 -0.49731445 171.32592773 C-0.45774735 156.83405906 -0.41627306 142.34219784 -0.37231445 127.8503418 C-0.36959018 126.95201591 -0.36686591 126.05369002 -0.36405908 125.12814214 C-0.35037614 120.61999786 -0.33665655 116.11185369 -0.32291877 111.60370958 C-0.20960168 74.4024887 -0.10265436 37.20125175 0 0 Z " fill="#E7CD6A" transform="translate(406,313)"/>
<path d="M0 0 C0.33 0 0.66 0 1 0 C1.33 112.86 1.66 225.72 2 342 C9.26 342.33 16.52 342.66 24 343 C24 343.99 24 344.98 24 346 C20.37515001 346.08681476 16.75056557 346.14032721 13.125 346.1875 C11.57619141 346.22520508 11.57619141 346.22520508 9.99609375 346.26367188 C9.00996094 346.27333984 8.02382813 346.28300781 7.0078125 346.29296875 C6.09660645 346.3086792 5.18540039 346.32438965 4.24658203 346.34057617 C3.50520996 346.22818604 2.76383789 346.1157959 2 346 C-0.2934172 342.55987419 -0.24904892 341.32154432 -0.24609566 337.2740984 C-0.25007775 336.07332057 -0.25405985 334.87254274 -0.25816262 333.63537771 C-0.2524562 332.2961277 -0.246565 330.95687847 -0.24050903 329.61763 C-0.24138071 328.20023353 -0.243131 326.78283737 -0.24568737 325.36544293 C-0.25017228 321.46144015 -0.24214158 317.55754652 -0.23213124 313.65355766 C-0.22351546 309.44702709 -0.22641557 305.24050297 -0.22793579 301.03396606 C-0.22898583 293.7428319 -0.22269682 286.45173347 -0.21146011 279.16060829 C-0.19522417 268.61879641 -0.18999906 258.07700184 -0.18748413 247.5351788 C-0.18310403 230.43286656 -0.16978639 213.33057338 -0.15087891 196.22827148 C-0.13252825 179.61238704 -0.11836776 162.99650776 -0.10986328 146.38061523 C-0.10933783 145.35686392 -0.10881239 144.33311261 -0.10827102 143.27833853 C-0.10566099 138.14261402 -0.10313356 133.00688948 -0.10064721 127.87116492 C-0.0799049 85.24743008 -0.04467081 42.62371602 0 0 Z " fill="#E3C766" transform="translate(615,312)"/>
<path d="M0 0 C0.99 0.495 0.99 0.495 2 1 C3.4357285 28.42071198 2.41368222 55.59498287 1 83 C0.67 83 0.34 83 0 83 C0 55.61 0 28.22 0 0 Z " fill="#F9F284" transform="translate(451,506)"/>
<path d="M0 0 C0.33 0 0.66 0 1 0 C1.33 21.12 1.66 42.24 2 64 C2.33 59.05 2.66 54.1 3 49 C3.33 49 3.66 49 4 49 C4.04948633 54.05369645 4.08576045 59.10725142 4.10986328 64.16113281 C4.1199127 65.87990781 4.13355445 67.59866575 4.15087891 69.31738281 C4.17517391 71.78975641 4.18649368 74.26190369 4.1953125 76.734375 C4.20563507 77.50118591 4.21595764 78.26799683 4.22659302 79.05804443 C4.22740447 82.92801753 4.01625478 85.67453932 2 89 C1.71519194 91.0742625 1.51125776 93.16071439 1.375 95.25 C1.30023438 96.32765625 1.22546875 97.4053125 1.1484375 98.515625 C1.09945313 99.33546875 1.05046875 100.1553125 1 101 C0.67 101 0.34 101 0 101 C0 67.67 0 34.34 0 0 Z " fill="#E1C365" transform="translate(450,506)"/>
<path d="M0 0 C4.5 5.625 4.5 5.625 5 9 C4.34 8.67 3.68 8.34 3 8 C2.67 27.8 2.34 47.6 2 68 C1.34 68 0.68 68 0 68 C0 45.56 0 23.12 0 0 Z " fill="#030507" transform="translate(453,415)"/>
<path d="M0 0 C0.33 0 0.66 0 1 0 C1.95744218 4.81953765 2.14596849 9.50277239 2.1328125 14.3984375 C2.13376923 15.19222809 2.13472595 15.98601868 2.13571167 16.80386353 C2.13638941 18.47633951 2.13456356 20.14881819 2.13037109 21.82128906 C2.12503137 24.36008724 2.13032257 26.89870737 2.13671875 29.4375 C2.13605762 31.07031289 2.13477573 32.70312566 2.1328125 34.3359375 C2.13483673 35.08515472 2.13686096 35.83437195 2.13894653 36.60629272 C2.11761531 41.48405531 1.68672946 46.16970726 1 51 C0.34 51 -0.32 51 -1 51 C-1.02526787 43.89755001 -1.04283201 36.79511152 -1.05493164 29.69262695 C-1.05997349 27.27432828 -1.06680678 24.85603267 -1.07543945 22.43774414 C-1.08751157 18.97020717 -1.09322963 15.50271034 -1.09765625 12.03515625 C-1.10281754 10.94662857 -1.10797882 9.85810089 -1.11329651 8.73658752 C-1.11337204 7.73562546 -1.11344757 6.73466339 -1.11352539 5.70336914 C-1.115746 4.81734512 -1.11796661 3.93132111 -1.12025452 3.01844788 C-1 1 -1 1 0 0 Z " fill="#C5B161" transform="translate(452,619)"/>
<path d="M0 0 C5.625 5.625 5.625 5.625 7 9 C5.68 8.34 4.36 7.68 3 7 C2.67 25.48 2.34 43.96 2 63 C1.34 63 0.68 63 0 63 C0 42.21 0 21.42 0 0 Z " fill="#050507" transform="translate(453,327)"/>
<path d="M0 0 C24.69929306 -0.46570897 48.8161304 0.37306004 73 6 C73 6.33 73 6.66 73 7 C66.83174545 7.16420122 61.08402065 6.53326456 55 5.5625 C45.99568097 4.19226019 37.10004265 3.37326908 28 3 C28 2.34 28 1.68 28 1 C18.76 1 9.52 1 0 1 C0 0.67 0 0.34 0 0 Z " fill="#F4DC75" transform="translate(497,220)"/>
<path d="M0 0 C0.33 0 0.66 0 1 0 C1.33 16.17 1.66 32.34 2 49 C1.67 49 1.34 49 1 49 C0.93941406 48.36191406 0.87882813 47.72382813 0.81640625 47.06640625 C0.69072266 45.82697266 0.69072266 45.82697266 0.5625 44.5625 C0.44068359 43.32693359 0.44068359 43.32693359 0.31640625 42.06640625 C0.21069185 40.01337975 0.21069185 40.01337975 -1 39 C-1.10103255 36.20006403 -1.13970088 33.42531356 -1.1328125 30.625 C-1.13376923 29.78533691 -1.13472595 28.94567383 -1.13571167 28.08056641 C-1.13639348 26.30175705 -1.13453917 24.52294523 -1.13037109 22.74414062 C-1.12502283 20.01166224 -1.13031605 17.27934824 -1.13671875 14.546875 C-1.13605797 12.8229163 -1.13477681 11.09895771 -1.1328125 9.375 C-1.13483673 8.55209473 -1.13686096 7.72918945 -1.13894653 6.88134766 C-1.11495054 1.11495054 -1.11495054 1.11495054 0 0 Z " fill="#F1DA74" transform="translate(237,459)"/>
<path d="M0 0 C7.59 0.33 15.18 0.66 23 1 C23 1.99 23 2.98 23 4 C15.74 4 8.48 4 1 4 C0.67 2.68 0.34 1.36 0 0 Z " fill="#E1CD70" transform="translate(616,654)"/>
<path d="M0 0 C6.12180251 2.01401136 12.15061803 4.24651871 18.1875 6.5 C19.27998047 6.90347656 20.37246094 7.30695312 21.49804688 7.72265625 C22.54412109 8.11324219 23.59019531 8.50382813 24.66796875 8.90625 C25.61953857 9.26009766 26.5711084 9.61394531 27.55151367 9.97851562 C30 11 30 11 33 13 C25.93565715 12.52045494 20.21280863 10.88071727 13.6875 8.1875 C12.80771484 7.84396484 11.92792969 7.50042969 11.02148438 7.14648438 C6.57953742 5.34879438 3.07834311 3.83715037 0 0 Z " fill="#F2D974" transform="translate(394,722)"/>
<path d="M0 0 C12.87 0 25.74 0 39 0 C39 2 39 4 39 6 C38.01 6.33 37.02 6.66 36 7 C35.87625 6.360625 35.7525 5.72125 35.625 5.0625 C35.41875 4.381875 35.2125 3.70125 35 3 C32.0003383 1.50016915 28.88053039 1.76097945 25.5859375 1.68359375 C24.85629791 1.66281265 24.12665833 1.64203156 23.37490845 1.62062073 C21.04170237 1.55518083 18.70838279 1.49626632 16.375 1.4375 C14.79425905 1.39430947 13.21352961 1.35069501 11.6328125 1.30664062 C7.75532496 1.19950519 3.87772315 1.09822218 0 1 C0 0.67 0 0.34 0 0 Z " fill="#C5AC5E" transform="translate(414,671)"/>
<path d="M0 0 C0.33 0 0.66 0 1 0 C2.16737163 5.36148515 2.45923212 10.65714545 2.75 16.125 C2.81832031 17.12660156 2.88664062 18.12820313 2.95703125 19.16015625 C3.00730469 20.12050781 3.05757813 21.08085938 3.109375 22.0703125 C3.16061523 22.94445801 3.21185547 23.81860352 3.26464844 24.71923828 C3 27 3 27 0 30 C0 20.1 0 10.2 0 0 Z " fill="#F4EE85" transform="translate(451,590)"/>
<path d="M0 0 C0.66 0.33 1.32 0.66 2 1 C1.20335937 1.67095703 1.20335937 1.67095703 0.390625 2.35546875 C-4.11130057 6.19221786 -4.11130057 6.19221786 -8 10.625 C-10.80368317 13.95437377 -14.24839993 15.86013103 -18 18 C-18.33 17.01 -18.66 16.02 -19 15 C-18.29101562 14.60941406 -17.58203125 14.21882812 -16.8515625 13.81640625 C-13.68226378 11.79760638 -11.11807194 9.50299015 -8.375 6.9375 C-5.63688797 4.38317906 -3.1171591 2.07810607 0 0 Z " fill="#F2DA6C" transform="translate(699,657)"/>
<path d="M0 0 C4.77075629 -0.23271982 8.44445128 0.63333538 13 2 C16.32330978 2.72013155 19.65889185 3.36808015 23 4 C23 4.66 23 5.32 23 6 C15.24548194 5.41993763 7.65257723 4.37559416 0 3 C0 2.01 0 1.02 0 0 Z " fill="#F0DA6A" transform="translate(545,208)"/>
<path d="M0 0 C7.26 0 14.52 0 22 0 C21.67 0.99 21.34 1.98 21 3 C14.4 2.67 7.8 2.34 1 2 C0.67 2.66 0.34 3.32 0 4 C0 2.68 0 1.36 0 0 Z " fill="#281F0F" transform="translate(582,312)"/>
<path d="M0 0 C0.33 0 0.66 0 1 0 C1.04948633 5.05369645 1.08576045 10.10725142 1.10986328 15.16113281 C1.1199127 16.87990781 1.13355445 18.59866575 1.15087891 20.31738281 C1.17517391 22.78975641 1.18649368 25.26190369 1.1953125 27.734375 C1.20563507 28.50118591 1.21595764 29.26799683 1.22659302 30.05804443 C1.22739012 33.85956767 1.14509572 36.77864518 -1 40 C-1.99369079 35.23680019 -1.9910825 30.799098 -1.66015625 25.9765625 C-1.61434921 25.23038666 -1.56854218 24.48421082 -1.52134705 23.71542358 C-1.37476918 21.35149731 -1.21878523 18.98830232 -1.0625 16.625 C-0.96096471 15.01436212 -0.86004687 13.40368519 -0.75976562 11.79296875 C-0.51365119 7.8614914 -0.25910395 3.93064177 0 0 Z " fill="#9A8849" transform="translate(453,555)"/>
<path d="M0 0 C5.54859516 0.49320846 10.18888511 2.0817718 15.3515625 4.16015625 C18.06284556 5.0199289 20.1761159 5.15801518 23 5 C22.67 5.99 22.34 6.98 22 8 C16.5632024 7.44147333 12.0816633 6.06042383 7.0625 3.9375 C6.37865234 3.65583984 5.69480469 3.37417969 4.99023438 3.08398438 C3.32386054 2.3964595 1.66149273 1.69923825 0 1 C0 0.67 0 0.34 0 0 Z " fill="#F3DC6F" transform="translate(408,715)"/>
<path d="M0 0 C5.4367976 0.55852667 9.9183367 1.93957617 14.9375 4.0625 C15.62134766 4.34416016 16.30519531 4.62582031 17.00976562 4.91601562 C18.67613946 5.6035405 20.33850727 6.30076175 22 7 C18.74004193 8.08557892 16.89457573 7.91310151 13.671875 6.78515625 C12.87265625 6.51123047 12.0734375 6.23730469 11.25 5.95507812 C10.425 5.66052734 9.6 5.36597656 8.75 5.0625 C7.90953125 4.77181641 7.0690625 4.48113281 6.203125 4.18164062 C4.13194269 3.46378767 2.06466738 2.73633881 0 2 C0 1.34 0 0.68 0 0 Z " fill="#F2DA73" transform="translate(589,232)"/>
<path d="M0 0 C0.33 0.99 0.66 1.98 1 3 C1.66 3 2.32 3 3 3 C3.6700834 5.12392506 4.33596797 7.24917524 5 9.375 C5.37125 10.55835938 5.7425 11.74171875 6.125 12.9609375 C7 16 7 16 7 18 C6.34 18 5.68 18 5 18 C4.15875684 15.75267898 3.32685168 13.50261215 2.5 11.25 C2.26152344 10.61578125 2.02304687 9.9815625 1.77734375 9.328125 C0.55198242 5.96713393 0 3.63128413 0 0 Z " fill="#F2D973" transform="translate(258,545)"/>
<path d="M0 0 C1.56454159 4.02014661 0.46223974 7.69925681 -0.4375 11.75 C-0.58509766 12.44738281 -0.73269531 13.14476562 -0.88476562 13.86328125 C-1.24868033 15.5772021 -1.62329068 17.28884581 -2 19 C-2.33 19 -2.66 19 -3 19 C-3.0809313 16.39521117 -3.14045434 13.79293347 -3.1875 11.1875 C-3.22520508 10.08051758 -3.22520508 10.08051758 -3.26367188 8.95117188 C-3.33834499 3.45025238 -3.33834499 3.45025238 -1.48828125 0.98828125 C-0.99714844 0.66214844 -0.50601563 0.33601563 0 0 Z " fill="#F4DF72" transform="translate(243,418)"/>
<path d="M0 0 C-0.33 0.66 -0.66 1.32 -1 2 C-3.984375 2.66796875 -3.984375 2.66796875 -7.75 3.1875 C-9.59851563 3.45626953 -9.59851563 3.45626953 -11.484375 3.73046875 C-14.64778321 3.97299671 -16.96174364 3.81754608 -20 3 C-20 2.67 -20 2.34 -20 2 C-17.79248152 1.66131223 -15.58394089 1.32928311 -13.375 1 C-12.14523437 0.814375 -10.91546875 0.62875 -9.6484375 0.4375 C-6.3833973 0.04597484 -3.28287549 -0.08080924 0 0 Z " fill="#F3DC74" transform="translate(561,743)"/>
<path d="M0 0 C0.33 0.66 0.66 1.32 1 2 C-0.07408957 4.60474038 -1.20045633 7.09966038 -2.4375 9.625 C-2.77587891 10.33140625 -3.11425781 11.0378125 -3.46289062 11.765625 C-4.30154879 13.51381384 -5.14987847 15.25735686 -6 17 C-7.23306978 14.07323092 -7.01493635 13.03773655 -5.8203125 10.01953125 C-5.26085937 8.96121094 -4.70140625 7.90289063 -4.125 6.8125 C-3.57070313 5.74644531 -3.01640625 4.68039062 -2.4453125 3.58203125 C-1 1 -1 1 0 0 Z " fill="#F2D974" transform="translate(757,571)"/>
<path d="M0 0 C1.3274855 3.98245651 -0.00092171 6.44789543 -1.4375 10.1875 C-1.80198242 11.16879883 -1.80198242 11.16879883 -2.17382812 12.16992188 C-2.7743293 13.78303286 -3.38609203 15.3919435 -4 17 C-4.33 17 -4.66 17 -5 17 C-5.6267316 11.04604982 -3.48006962 6.28882316 -1 1 C-0.67 0.67 -0.34 0.34 0 0 Z " fill="#F4DA71" transform="translate(764,551)"/>
<path d="M0 0 C0.66 0 1.32 0 2 0 C3.65625 2.265625 3.65625 2.265625 5.5 5.25 C6.1084375 6.22453125 6.716875 7.1990625 7.34375 8.203125 C8.66713848 10.43790366 9.88436415 12.65716472 11 15 C10.01 15.495 10.01 15.495 9 16 C8.27683594 14.84371094 8.27683594 14.84371094 7.5390625 13.6640625 C6.90742187 12.66117187 6.27578125 11.65828125 5.625 10.625 C4.99851562 9.62726563 4.37203125 8.62953125 3.7265625 7.6015625 C2.10730288 4.9751981 2.10730288 4.9751981 0 3 C0 2.01 0 1.02 0 0 Z " fill="#F2DB68" transform="translate(725,329)"/>
<path d="M0 0 C-5.23404705 2.66578794 -9.05921376 3.11424589 -15 3 C-15 2.34 -15 1.68 -15 1 C-9.94997778 -0.03590199 -5.12583611 -0.10251672 0 0 Z " fill="#F3DD74" transform="translate(572,728)"/>
<path d="M0 0 C0.99 0.99 1.98 1.98 3 3 C3.99 3.66 4.98 4.32 6 5 C4.68 5.33 3.36 5.66 2 6 C1.67 9.3 1.34 12.6 1 16 C0.67 16 0.34 16 0 16 C0 10.72 0 5.44 0 0 Z " fill="#22211C" transform="translate(455,332)"/>
<path d="M0 0 C0 3.77910478 -0.99703962 4.46106101 -3.5 7.1875 C-4.1496875 7.90292969 -4.799375 8.61835937 -5.46875 9.35546875 C-5.9740625 9.89816406 -6.479375 10.44085937 -7 11 C-7.99 10.67 -8.98 10.34 -10 10 C-6.7 6.7 -3.4 3.4 0 0 Z " fill="#F3DA74" transform="translate(717,657)"/>
<path d="M0 0 C0 0.66 0 1.32 0 2 C-1.60049704 2.39036513 -3.20562371 2.76178619 -4.8125 3.125 C-5.70582031 3.33382812 -6.59914063 3.54265625 -7.51953125 3.7578125 C-10 4 -10 4 -13 2 C-4.57142857 -0.28571429 -4.57142857 -0.28571429 0 0 Z " fill="#F1DB6C" transform="translate(580,739)"/>
<path d="M0 0 C0.33 0 0.66 0 1 0 C1.33 3.96 1.66 7.92 2 12 C-1.45397435 8.54602565 -2.56375905 7.30872286 -4 3 C-2.515 3.99 -2.515 3.99 -1 5 C-0.67 3.35 -0.34 1.7 0 0 Z " fill="#0A0804" transform="translate(566,630)"/>
<path d="M0 0 C3.26782914 1.08927638 3.81937333 1.68347929 5.75 4.375 C6.42289062 5.28378906 6.42289062 5.28378906 7.109375 6.2109375 C8 8 8 8 7 11 C5.82750647 9.54634731 4.66216184 8.08692581 3.5 6.625 C2.52546875 5.40683594 2.52546875 5.40683594 1.53125 4.1640625 C0 2 0 2 0 0 Z " fill="#F2DA73" transform="translate(296,625)"/>
<path d="M0 0 C3.21524305 1.40844718 5.32183868 3.10344786 7.75 5.625 C8.67039062 6.57246094 8.67039062 6.57246094 9.609375 7.5390625 C10.29773438 8.26222656 10.29773438 8.26222656 11 9 C10.67 9.66 10.34 10.32 10 11 C8.32742645 9.5484451 6.66208242 8.08855591 5 6.625 C3.6078125 5.40683594 3.6078125 5.40683594 2.1875 4.1640625 C1.465625 3.44992187 0.74375 2.73578125 0 2 C0 1.34 0 0.68 0 0 Z " fill="#F2D973" transform="translate(696,278)"/>
<path d="M0 0 C1.98 0.66 3.96 1.32 6 2 C5.34 3.32 4.68 4.64 4 6 C3.34 6 2.68 6 2 6 C1.87625 5.360625 1.7525 4.72125 1.625 4.0625 C1.315625 3.0415625 1.315625 3.0415625 1 2 C0.34 1.67 -0.32 1.34 -1 1 C-0.67 0.67 -0.34 0.34 0 0 Z " fill="#C15724" transform="translate(448,672)"/>
<path d="M0 0 C0.33 0.99 0.66 1.98 1 3 C-0.21484375 4.82421875 -0.21484375 4.82421875 -1.9375 6.6875 C-2.50339844 7.31011719 -3.06929688 7.93273437 -3.65234375 8.57421875 C-4.09707031 9.04472656 -4.54179687 9.51523437 -5 10 C-5.66 9.67 -6.32 9.34 -7 9 C-4.69 6.03 -2.38 3.06 0 0 Z " fill="#F4DA74" transform="translate(305,318)"/>
<path d="M0 0 C0 0.66 0 1.32 0 2 C-5.95703125 3.7578125 -5.95703125 3.7578125 -8 4 C-8.99 3.34 -9.98 2.68 -11 2 C-3.375 0 -3.375 0 0 0 Z " fill="#F4DE6D" transform="translate(598,734)"/>
<path d="M0 0 C0 0.66 0 1.32 0 2 C-2.8125 4.1875 -2.8125 4.1875 -6 6 C-6.99 5.67 -7.98 5.34 -9 5 C-7.87926138 4.16094435 -6.75325453 3.32892169 -5.625 2.5 C-4.99851562 2.0359375 -4.37203125 1.571875 -3.7265625 1.09375 C-2 0 -2 0 0 0 Z " fill="#F3DA6C" transform="translate(680,692)"/>
<path d="M0 0 C0.66 0 1.32 0 2 0 C2 1.98 2 3.96 2 6 C2.66 6.33 3.32 6.66 4 7 C2.02 7.99 2.02 7.99 0 9 C0 6.03 0 3.06 0 0 Z " fill="#EFE38B" transform="translate(567,664)"/>
<path d="M0 0 C4.42857143 5.14285714 4.42857143 5.14285714 5 9 C3.0625 8.4375 3.0625 8.4375 1 7 C0.25 3.375 0.25 3.375 0 0 Z " fill="#0F0C07" transform="translate(453,415)"/>
<path d="M0 0 C0.33 0.99 0.66 1.98 1 3 C-0.28965176 4.37562854 -1.62689293 5.70766393 -3 7 C-3.66 7 -4.32 7 -5 7 C-3.70700306 4.11562221 -2.34058637 2.12780579 0 0 Z " fill="#F1DB73" transform="translate(724,649)"/>
<path d="M0 0 C0.66 0 1.32 0 2 0 C0.8141763 3.37503669 -0.27573689 5.64722731 -3 8 C-2.45276317 4.62537285 -1.9451 2.91765 0 0 Z " fill="#F2D973" transform="translate(739,605)"/>
<path d="M0 0 C2.97 0 5.94 0 9 0 C9 0.33 9 0.66 9 1 C6.03 1 3.06 1 0 1 C0 0.67 0 0.34 0 0 Z " fill="#F7D26C" transform="translate(510,750)"/>
<path d="M0 0 C2.31 0 4.62 0 7 0 C7 0.33 7 0.66 7 1 C4.69 1 2.38 1 0 1 C0 0.67 0 0.34 0 0 Z " fill="#FFE56A" transform="translate(506,223)"/>
<path d="M0 0 C1.65 0 3.3 0 5 0 C5 0.33 5 0.66 5 1 C3.35 1 1.7 1 0 1 C0 0.67 0 0.34 0 0 Z " fill="#FFF233" transform="translate(504,750)"/>
<path d="M0 0 C4 1 4 1 4 1 Z " fill="#FFFF20" transform="translate(498,750)"/>
<path d="M0 0 C4 1 4 1 4 1 Z " fill="#FFFF20" transform="translate(487,749)"/>
<path d="M0 0 C4 1 4 1 4 1 Z " fill="#FFFF40" transform="translate(481,749)"/>
<path d="M0 0 C4 1 4 1 4 1 Z " fill="#FFFF00" transform="translate(552,728)"/>
<path d="M0 0 C1 4 1 4 1 4 Z " fill="#FFFF20" transform="translate(655,570)"/>
<path d="M0 0 C1 4 1 4 1 4 Z " fill="#FFD975" transform="translate(240,416)"/>
<path d="M0 0 C4 1 4 1 4 1 Z " fill="#F2C764" transform="translate(464,208)"/>
<path d="M0 0 C3 1 3 1 3 1 Z " fill="#E9E980" transform="translate(572,743)"/>
<path d="M0 0 C0.99 0.495 0.99 0.495 2 1 C1.01 1.495 1.01 1.495 0 2 C0 1.34 0 0.68 0 0 Z " fill="#FFFF00" transform="translate(640,698)"/>
<path d="" fill="#D42A00" transform="translate(0,0)"/>
<path d="M0 0 C0.99 0.495 0.99 0.495 2 1 C1.01 1.495 1.01 1.495 0 2 C0 1.34 0 0.68 0 0 Z " fill="#808080" transform="translate(448,680)"/>
<path d="" fill="#FFE21C" transform="translate(0,0)"/>
<path d="" fill="#FFE21C" transform="translate(0,0)"/>
<path d="" fill="#FFFF00" transform="translate(0,0)"/>
<path d="" fill="#FFFF2A" transform="translate(0,0)"/>
<path d="" fill="#FFE92A" transform="translate(0,0)"/>
<path d="" fill="#FFC663" transform="translate(0,0)"/>
<path d="M0 0 C0.66 0.66 1.32 1.32 2 2 C1.34 2 0.68 2 0 2 C0 1.34 0 0.68 0 0 Z " fill="#F0F02A" transform="translate(600,238)"/>
<path d="M0 0 C3 1 3 1 3 1 Z " fill="#FFD13E" transform="translate(445,231)"/>
<path d="M0 0 C3 1 3 1 3 1 Z " fill="#FFFF2A" transform="translate(515,223)"/>
<path d="M0 0 C2 1 2 1 2 1 Z " fill="#FFFF00" transform="translate(524,750)"/>
<path d="M0 0 C2 1 2 1 2 1 Z " fill="#FFFF80" transform="translate(536,749)"/>
<path d="M0 0 C2 1 2 1 2 1 Z " fill="#FFFF00" transform="translate(476,748)"/>
<path d="M0 0 C2 1 2 1 2 1 Z " fill="#FFFF00" transform="translate(445,743)"/>
<path d="M0 0 C2 1 2 1 2 1 Z " fill="#FFFF40" transform="translate(377,717)"/>
<path d="M0 0 C2 1 2 1 2 1 Z " fill="#FFFF00" transform="translate(608,713)"/>
<path d="M0 0 C2 1 2 1 2 1 Z " fill="#FFFF40" transform="translate(656,688)"/>
<path d="" fill="#BF4000" transform="translate(0,0)"/>
<path d="M0 0 C2 1 2 1 2 1 Z " fill="#BF4040" transform="translate(572,673)"/>
<path d="" fill="#FFFF80" transform="translate(0,0)"/>
<path d="" fill="#FFFF80" transform="translate(0,0)"/>
<path d="" fill="#E9E96A" transform="translate(0,0)"/>
<path d="" fill="#FFFF40" transform="translate(0,0)"/>
<path d="" fill="#FFFF40" transform="translate(0,0)"/>
<path d="" fill="#FFFF40" transform="translate(0,0)"/>
<path d="" fill="#FFFF00" transform="translate(0,0)"/>
<path d="" fill="#FFFF80" transform="translate(0,0)"/>
<path d="" fill="#FFE533" transform="translate(0,0)"/>
<path d="" fill="#FFFF00" transform="translate(0,0)"/>
<path d="" fill="#FFFF40" transform="translate(0,0)"/>
<path d="" fill="#FFFF00" transform="translate(0,0)"/>
<path d="" fill="#FFFF00" transform="translate(0,0)"/>
<path d="" fill="#FFFF00" transform="translate(0,0)"/>
<path d="" fill="#FFFF00" transform="translate(0,0)"/>
<path d="" fill="#FFFF00" transform="translate(0,0)"/>
<path d="" fill="#FFFF00" transform="translate(0,0)"/>
<path d="" fill="#FFFF40" transform="translate(0,0)"/>
<path d="" fill="#FFFF00" transform="translate(0,0)"/>
<path d="" fill="#FFFF80" transform="translate(0,0)"/>
<path d="" fill="#FFFF00" transform="translate(0,0)"/>
<path d="" fill="#FFFF00" transform="translate(0,0)"/>
<path d="" fill="#FFFF00" transform="translate(0,0)"/>
<path d="" fill="#FFFF40" transform="translate(0,0)"/>
<path d="" fill="#FFFF00" transform="translate(0,0)"/>
<path d="" fill="#FFFF00" transform="translate(0,0)"/>
<path d="M0 0 C2 1 2 1 2 1 Z " fill="#FFFF40" transform="translate(613,224)"/>
<path d="M0 0 C2 1 2 1 2 1 Z " fill="#FFFF40" transform="translate(501,223)"/>
<path d="M0 0 C2 1 2 1 2 1 Z " fill="#FFFF40" transform="translate(566,210)"/>
<path d="M0 0 C2 1 2 1 2 1 Z " fill="#FFFF00" transform="translate(557,208)"/>
<path d="M0 0 C2 1 2 1 2 1 Z " fill="#FFFF00" transform="translate(491,205)"/>
<path d="" fill="#000000" transform="translate(0,0)"/>
<path d="" fill="#FFFF00" transform="translate(0,0)"/>
<path d="" fill="#FFFF80" transform="translate(0,0)"/>
<path d="" fill="#FFFF00" transform="translate(0,0)"/>
<path d="" fill="#FFFF00" transform="translate(0,0)"/>
<path d="" fill="#FFFF00" transform="translate(0,0)"/>
<path d="" fill="#FFFF80" transform="translate(0,0)"/>
<path d="" fill="#FFFF00" transform="translate(0,0)"/>
<path d="" fill="#FFFF80" transform="translate(0,0)"/>
<path d="" fill="#FFFF00" transform="translate(0,0)"/>
<path d="" fill="#FFFF00" transform="translate(0,0)"/>
<path d="" fill="#FFFF00" transform="translate(0,0)"/>
<path d="" fill="#FFFF00" transform="translate(0,0)"/>
<path d="" fill="#FFFF00" transform="translate(0,0)"/>
<path d="" fill="#FFFF00" transform="translate(0,0)"/>
<path d="" fill="#FFFF00" transform="translate(0,0)"/>
<path d="" fill="#FFAA55" transform="translate(0,0)"/>
<path d="" fill="#FFFF00" transform="translate(0,0)"/>
<path d="" fill="#FFFF00" transform="translate(0,0)"/>
<path d="" fill="#FFFF00" transform="translate(0,0)"/>
<path d="" fill="#FFAA55" transform="translate(0,0)"/>
<path d="" fill="#FFFF80" transform="translate(0,0)"/>
<path d="" fill="#FFFF80" transform="translate(0,0)"/>
<path d="" fill="#FFFF00" transform="translate(0,0)"/>
<path d="" fill="#FFAA55" transform="translate(0,0)"/>
<path d="" fill="#FFFF00" transform="translate(0,0)"/>
<path d="" fill="#FFAA55" transform="translate(0,0)"/>
<path d="" fill="#FFAA55" transform="translate(0,0)"/>
<path d="" fill="#FFFF80" transform="translate(0,0)"/>
<path d="" fill="#FFFF80" transform="translate(0,0)"/>
<path d="" fill="#FFFF00" transform="translate(0,0)"/>
<path d="" fill="#FFFF00" transform="translate(0,0)"/>
<path d="" fill="#FFAA55" transform="translate(0,0)"/>
<path d="" fill="#FFFF00" transform="translate(0,0)"/>
<path d="" fill="#FFFF80" transform="translate(0,0)"/>
<path d="" fill="#FFFF80" transform="translate(0,0)"/>
<path d="" fill="#FF0000" transform="translate(0,0)"/>
<path d="" fill="#FF0000" transform="translate(0,0)"/>
<path d="" fill="#FFFF80" transform="translate(0,0)"/>
<path d="" fill="#FF0000" transform="translate(0,0)"/>
<path d="" fill="#FFAA55" transform="translate(0,0)"/>
<path d="" fill="#808000" transform="translate(0,0)"/>
<path d="" fill="#FF0000" transform="translate(0,0)"/>
<path d="" fill="#808080" transform="translate(0,0)"/>
<path d="" fill="#FFFF00" transform="translate(0,0)"/>
<path d="" fill="#FFFF00" transform="translate(0,0)"/>
<path d="" fill="#FFFF00" transform="translate(0,0)"/>
<path d="" fill="#FFAA55" transform="translate(0,0)"/>
<path d="" fill="#FFFF00" transform="translate(0,0)"/>
<path d="" fill="#FFFF00" transform="translate(0,0)"/>
<path d="" fill="#FFFF00" transform="translate(0,0)"/>
<path d="" fill="#FFAA55" transform="translate(0,0)"/>
<path d="" fill="#FFFF00" transform="translate(0,0)"/>
<path d="" fill="#FFFF00" transform="translate(0,0)"/>
<path d="" fill="#FFFF00" transform="translate(0,0)"/>
<path d="" fill="#FFFF00" transform="translate(0,0)"/>
<path d="" fill="#FFFF80" transform="translate(0,0)"/>
<path d="" fill="#FFFF00" transform="translate(0,0)"/>
<path d="" fill="#FFFF00" transform="translate(0,0)"/>
<path d="" fill="#FFFF00" transform="translate(0,0)"/>
<path d="" fill="#FFFF00" transform="translate(0,0)"/>
<path d="" fill="#FFFF00" transform="translate(0,0)"/>
<path d="" fill="#FFFF00" transform="translate(0,0)"/>
<path d="" fill="#FFFF00" transform="translate(0,0)"/>
<path d="" fill="#FFFF80" transform="translate(0,0)"/>
<path d="" fill="#FFFF00" transform="translate(0,0)"/>
<path d="" fill="#FFFF00" transform="translate(0,0)"/>
<path d="" fill="#FFFF80" transform="translate(0,0)"/>
<path d="" fill="#BFBF80" transform="translate(0,0)"/>
<path d="" fill="#FFFF00" transform="translate(0,0)"/>
<path d="" fill="#FFFF00" transform="translate(0,0)"/>
<path d="" fill="#FFFF00" transform="translate(0,0)"/>
<path d="" fill="#FFAA55" transform="translate(0,0)"/>
<path d="" fill="#FFFF00" transform="translate(0,0)"/>
<path d="" fill="#FFFF00" transform="translate(0,0)"/>
<path d="" fill="#FFAA55" transform="translate(0,0)"/>
<path d="" fill="#FFFF00" transform="translate(0,0)"/>
<path d="" fill="#FFFF00" transform="translate(0,0)"/>
<path d="" fill="#FFFF00" transform="translate(0,0)"/>
<path d="" fill="#FFFF00" transform="translate(0,0)"/>
<path d="" fill="#FFFF00" transform="translate(0,0)"/>
<path d="" fill="#FFFF80" transform="translate(0,0)"/>
<path d="" fill="#FFFF80" transform="translate(0,0)"/>
<path d="" fill="#FFFF00" transform="translate(0,0)"/>
<path d="" fill="#FFFF80" transform="translate(0,0)"/>
<path d="" fill="#FFFF80" transform="translate(0,0)"/>
<path d="" fill="#FFBF80" transform="translate(0,0)"/>
<path d="" fill="#FFFF80" transform="translate(0,0)"/>
<path d="" fill="#FFFF00" transform="translate(0,0)"/>
<path d="" fill="#FFFF00" transform="translate(0,0)"/>
<path d="" fill="#FFFF00" transform="translate(0,0)"/>
<path d="" fill="#FFFF80" transform="translate(0,0)"/>
<path d="" fill="#FFFF00" transform="translate(0,0)"/>
<path d="" fill="#FFFF00" transform="translate(0,0)"/>
<path d="" fill="#FFFF00" transform="translate(0,0)"/>
<path d="" fill="#FFFF00" transform="translate(0,0)"/>
<path d="" fill="#FFFF80" transform="translate(0,0)"/>
<path d="" fill="#FFFF00" transform="translate(0,0)"/>
<path d="" fill="#FFFF00" transform="translate(0,0)"/>
<path d="" fill="#FFFF00" transform="translate(0,0)"/>
<path d="" fill="#FFFF00" transform="translate(0,0)"/>
<path d="" fill="#FFFF00" transform="translate(0,0)"/>
<path d="" fill="#FFFF00" transform="translate(0,0)"/>
<path d="" fill="#FFFF00" transform="translate(0,0)"/>
<path d="" fill="#FFFF00" transform="translate(0,0)"/>
<path d="" fill="#FFAA55" transform="translate(0,0)"/>
<path d="" fill="#FFFF00" transform="translate(0,0)"/>
<path d="" fill="#FFFF80" transform="translate(0,0)"/>
<path d="" fill="#FFFF00" transform="translate(0,0)"/>
<path d="" fill="#FFFF80" transform="translate(0,0)"/>
<path d="" fill="#FFFF00" transform="translate(0,0)"/>
<path d="" fill="#FFFF00" transform="translate(0,0)"/>
<path d="" fill="#FFFF80" transform="translate(0,0)"/>
<path d="" fill="#FFFF00" transform="translate(0,0)"/>
<path d="" fill="#FFAA55" transform="translate(0,0)"/>
<path d="" fill="#FFFF00" transform="translate(0,0)"/>
<path d="" fill="#FFFF00" transform="translate(0,0)"/>
<path d="" fill="#FFFF00" transform="translate(0,0)"/>
<path d="" fill="#FFFF00" transform="translate(0,0)"/>
<path d="" fill="#FFAA55" transform="translate(0,0)"/>
<path d="" fill="#FFFF80" transform="translate(0,0)"/>
<path d="" fill="#FFFF80" transform="translate(0,0)"/>
<path d="" fill="#FFFF00" transform="translate(0,0)"/>
<path d="" fill="#FFFF00" transform="translate(0,0)"/>
<path d="" fill="#FFAA55" transform="translate(0,0)"/>
<path d="" fill="#FFFF00" transform="translate(0,0)"/>
<path d="" fill="#FFFF00" transform="translate(0,0)"/>
<path d="" fill="#FFAA55" transform="translate(0,0)"/>
<path d="" fill="#FFFF00" transform="translate(0,0)"/>
<path d="" fill="#FFFF00" transform="translate(0,0)"/>
<path d="" fill="#FFFF80" transform="translate(0,0)"/>
<path d="" fill="#FFFF00" transform="translate(0,0)"/>
<path d="" fill="#FFFF00" transform="translate(0,0)"/>
<path d="" fill="#FFFF80" transform="translate(0,0)"/>
<path d="" fill="#FFFF00" transform="translate(0,0)"/>
<path d="" fill="#FFFF80" transform="translate(0,0)"/>
<path d="" fill="#FFAA55" transform="translate(0,0)"/>
<path d="" fill="#FFFF00" transform="translate(0,0)"/>
<path d="" fill="#FFFF00" transform="translate(0,0)"/>
<path d="" fill="#FFFF80" transform="translate(0,0)"/>
<path d="" fill="#FFFF00" transform="translate(0,0)"/>
<path d="" fill="#FFFF00" transform="translate(0,0)"/>
<path d="" fill="#FFFF00" transform="translate(0,0)"/>
<path d="" fill="#FFFF00" transform="translate(0,0)"/>
<path d="" fill="#FFFF00" transform="translate(0,0)"/>
<path d="" fill="#FFFF80" transform="translate(0,0)"/>
<path d="" fill="#FFFF00" transform="translate(0,0)"/>
<path d="" fill="#FFFF00" transform="translate(0,0)"/>
<path d="" fill="#FFFF00" transform="translate(0,0)"/>
<path d="" fill="#FFFF80" transform="translate(0,0)"/>
<path d="" fill="#FFFF00" transform="translate(0,0)"/>
<path d="" fill="#FFFF00" transform="translate(0,0)"/>
<path d="" fill="#FFFF80" transform="translate(0,0)"/>
<path d="" fill="#FFFF00" transform="translate(0,0)"/>
<path d="" fill="#FFFF80" transform="translate(0,0)"/>
<path d="" fill="#FFFF00" transform="translate(0,0)"/>
<path d="" fill="#FFFF80" transform="translate(0,0)"/>
<path d="" fill="#FFAA55" transform="translate(0,0)"/>
<path d="" fill="#FFFF80" transform="translate(0,0)"/>
<path d="" fill="#FFFF00" transform="translate(0,0)"/>
<path d="" fill="#FFFF80" transform="translate(0,0)"/>
<path d="" fill="#FFFF00" transform="translate(0,0)"/>
<path d="" fill="#FFFF00" transform="translate(0,0)"/>
<path d="" fill="#FFAA55" transform="translate(0,0)"/>
<path d="" fill="#FFFF00" transform="translate(0,0)"/>
<path d="" fill="#FFFF00" transform="translate(0,0)"/>
<path d="" fill="#FFFF00" transform="translate(0,0)"/>
<path d="" fill="#FFFF00" transform="translate(0,0)"/>
<path d="" fill="#FFFF00" transform="translate(0,0)"/>
<path d="" fill="#FFFF80" transform="translate(0,0)"/>
<path d="" fill="#FFFF80" transform="translate(0,0)"/>
<path d="" fill="#FFFF80" transform="translate(0,0)"/>
<path d="" fill="#FFFF00" transform="translate(0,0)"/>
<path d="" fill="#FFFF80" transform="translate(0,0)"/>
<path d="" fill="#FFFF00" transform="translate(0,0)"/>
<path d="" fill="#FFAA55" transform="translate(0,0)"/>
<path d="" fill="#FFFF00" transform="translate(0,0)"/>
<path d="" fill="#FFFF00" transform="translate(0,0)"/>
<path d="" fill="#FFFF80" transform="translate(0,0)"/>
<path d="" fill="#FFFF00" transform="translate(0,0)"/>
<path d="" fill="#FFFF00" transform="translate(0,0)"/>
<path d="" fill="#FFAA55" transform="translate(0,0)"/>
<path d="" fill="#FFFF00" transform="translate(0,0)"/>
<path d="" fill="#FFFF00" transform="translate(0,0)"/>
<path d="" fill="#FFFF00" transform="translate(0,0)"/>
<path d="" fill="#FFFF00" transform="translate(0,0)"/>
<path d="" fill="#FFFF00" transform="translate(0,0)"/>
<path d="" fill="#FFFF00" transform="translate(0,0)"/>
<path d="" fill="#FFFF80" transform="translate(0,0)"/>
<path d="" fill="#FFFF00" transform="translate(0,0)"/>
<path d="" fill="#FFFF00" transform="translate(0,0)"/>
<path d="" fill="#FFAA55" transform="translate(0,0)"/>
<path d="" fill="#FFFF00" transform="translate(0,0)"/>
<path d="" fill="#FFFF00" transform="translate(0,0)"/>
<path d="" fill="#FFAA55" transform="translate(0,0)"/>
<path d="" fill="#FFFF00" transform="translate(0,0)"/>
<path d="" fill="#FFFF00" transform="translate(0,0)"/>
<path d="" fill="#FFFF00" transform="translate(0,0)"/>
<path d="" fill="#FFFF80" transform="translate(0,0)"/>
<path d="" fill="#FFFF00" transform="translate(0,0)"/>
<path d="" fill="#FFFF00" transform="translate(0,0)"/>
<path d="" fill="#FFFF00" transform="translate(0,0)"/>
<path d="" fill="#FFBF80" transform="translate(0,0)"/>
<path d="" fill="#FFFF00" transform="translate(0,0)"/>
<path d="" fill="#FFFF00" transform="translate(0,0)"/>
<path d="" fill="#FFBF80" transform="translate(0,0)"/>
<path d="" fill="#FFFF80" transform="translate(0,0)"/>
<path d="" fill="#FFFF00" transform="translate(0,0)"/>
<path d="" fill="#FFFF80" transform="translate(0,0)"/>
<path d="" fill="#FFFF00" transform="translate(0,0)"/>
<path d="" fill="#FFAA55" transform="translate(0,0)"/>
<path d="" fill="#FFFF80" transform="translate(0,0)"/>
<path d="" fill="#FFFF00" transform="translate(0,0)"/>
<path d="" fill="#FFAA55" transform="translate(0,0)"/>
<path d="" fill="#FFFF80" transform="translate(0,0)"/>
<path d="" fill="#FFAA55" transform="translate(0,0)"/>
<path d="" fill="#FFAA55" transform="translate(0,0)"/>
<path d="" fill="#FFFF00" transform="translate(0,0)"/>
<path d="" fill="#FFFF00" transform="translate(0,0)"/>
<path d="" fill="#CCCC66" transform="translate(0,0)"/>
<path d="" fill="#FFFF00" transform="translate(0,0)"/>
<path d="" fill="#FFFF00" transform="translate(0,0)"/>
<path d="" fill="#FFFF80" transform="translate(0,0)"/>
<path d="" fill="#FFFF00" transform="translate(0,0)"/>
<path d="" fill="#FFFF00" transform="translate(0,0)"/>
<path d="" fill="#FFFF00" transform="translate(0,0)"/>
<path d="" fill="#FFFF00" transform="translate(0,0)"/>
<path d="" fill="#FFFF00" transform="translate(0,0)"/>
<path d="" fill="#FFFF00" transform="translate(0,0)"/>
<path d="" fill="#FFFF00" transform="translate(0,0)"/>
<path d="" fill="#FFFF00" transform="translate(0,0)"/>
<path d="" fill="#FFFF00" transform="translate(0,0)"/>
<path d="" fill="#FFFF00" transform="translate(0,0)"/>
<path d="" fill="#FFFF00" transform="translate(0,0)"/>
<path d="" fill="#FFFF00" transform="translate(0,0)"/>
<path d="" fill="#FFAA55" transform="translate(0,0)"/>
<path d="" fill="#FFFF00" transform="translate(0,0)"/>
<path d="" fill="#FFFF00" transform="translate(0,0)"/>
<path d="" fill="#FFFF00" transform="translate(0,0)"/>
<path d="" fill="#FFFF00" transform="translate(0,0)"/>
<path d="" fill="#FFFF00" transform="translate(0,0)"/>
<path d="" fill="#FFFF80" transform="translate(0,0)"/>
<path d="" fill="#FFFF00" transform="translate(0,0)"/>
<path d="" fill="#FFFF80" transform="translate(0,0)"/>
<path d="" fill="#FFFF80" transform="translate(0,0)"/>
<path d="" fill="#FFFF00" transform="translate(0,0)"/>
<path d="" fill="#FFFF00" transform="translate(0,0)"/>
</svg>
